<svg xmlns="http://www.w3.org/2000/svg" xmlns:xlink="http://www.w3.org/1999/xlink" version="1.1" width="256" height="256" viewBox="0 0 256 256" xml:space="preserve">
<g style="stroke: none; stroke-width: 0; stroke-dasharray: none; stroke-linecap: butt; stroke-linejoin: miter; stroke-miterlimit: 10; fill: none; fill-rule: nonzero; opacity: 1;" transform="translate(1.4065934065934016 1.4065934065934016) scale(2.81 2.81)">
	<path d="M 63.244 9.262 c -0.06 0.046 -0.121 0.092 -0.181 0.138 c -1.034 0.79 -2.099 1.531 -3.189 2.226 v 0 c -7.667 4.894 -16.633 7.455 -25.776 7.605 V 19.23 c -0.283 0.005 -0.566 0.016 -0.849 0.016 H 17.522 c -8.027 0 -15.073 5.396 -17.001 12.883 c 0 0 0 0 0 0 c 0 0 0 0 0 0.001 c -0.276 1.071 -0.447 2.186 -0.501 3.333 c -0.445 9.442 6.805 17.272 16.013 17.812 v 6.654 v 15.894 c 0 3.242 2.629 5.871 5.871 5.871 h 0 c 3.242 0 5.871 -2.629 5.871 -5.871 V 59.929 v -0.103 l 2.972 -6.498 h 2.502 c 0.284 0 0.566 0.012 0.849 0.016 c 5.914 0.097 11.749 1.218 17.212 3.311 c 2.982 1.143 5.857 2.564 8.564 4.292 c 1.09 0.696 2.155 1.437 3.189 2.226 c 0.06 0.046 0.121 0.092 0.181 0.138 c 3.118 2.358 7.596 0.079 7.596 -3.829 v -4.723 V 13.091 C 70.84 9.183 66.362 6.904 63.244 9.262 z" style="stroke: none; stroke-width: 1; stroke-dasharray: none; stroke-linecap: butt; stroke-linejoin: miter; stroke-miterlimit: 10; fill: rgb(255,255,255); fill-rule: nonzero; opacity: 1;" transform=" matrix(1 0 0 1 0 0) " stroke-linecap="round"/>
	<path d="M 88.989 34.324 h -9.494 c -0.559 0 -1.011 0.453 -1.011 1.011 c 0 0.558 0.452 1.011 1.011 1.011 h 9.494 c 0.559 0 1.011 -0.453 1.011 -1.011 C 90 34.777 89.548 34.324 88.989 34.324 z" style="stroke: none; stroke-width: 1; stroke-dasharray: none; stroke-linecap: butt; stroke-linejoin: miter; stroke-miterlimit: 10; fill: rgb(255,255,255); fill-rule: nonzero; opacity: 1;" transform=" matrix(1 0 0 1 0 0) " stroke-linecap="round"/>
	<path d="M 79.496 22.4 c 0.148 0 0.299 -0.033 0.441 -0.102 l 7.169 -3.487 c 0.502 -0.244 0.711 -0.849 0.467 -1.352 c -0.243 -0.501 -0.848 -0.711 -1.352 -0.467 l -7.169 3.487 c -0.502 0.244 -0.711 0.849 -0.467 1.352 C 78.76 22.191 79.12 22.4 79.496 22.4 z" style="stroke: none; stroke-width: 1; stroke-dasharray: none; stroke-linecap: butt; stroke-linejoin: miter; stroke-miterlimit: 10; fill: rgb(255,255,255); fill-rule: nonzero; opacity: 1;" transform=" matrix(1 0 0 1 0 0) " stroke-linecap="round"/>
	<path d="M 87.107 51.858 l -7.169 -3.487 c -0.504 -0.244 -1.108 -0.035 -1.352 0.467 c -0.244 0.503 -0.035 1.108 0.467 1.352 l 7.169 3.487 c 0.142 0.069 0.293 0.102 0.441 0.102 c 0.375 0 0.736 -0.209 0.91 -0.569 C 87.818 52.708 87.608 52.102 87.107 51.858 z" style="stroke: none; stroke-width: 1; stroke-dasharray: none; stroke-linecap: butt; stroke-linejoin: miter; stroke-miterlimit: 10; fill: rgb(255,255,255); fill-rule: nonzero; opacity: 1;" transform=" matrix(1 0 0 1 0 0) " stroke-linecap="round"/>
</g>
</svg>