<svg xmlns="http://www.w3.org/2000/svg" xmlns:xlink="http://www.w3.org/1999/xlink" version="1.1" width="256" height="256" viewBox="0 0 256 256" xml:space="preserve">
<g style="stroke: none; stroke-width: 0; stroke-dasharray: none; stroke-linecap: butt; stroke-linejoin: miter; stroke-miterlimit: 10; fill: none; fill-rule: nonzero; opacity: 1;" transform="translate(1.4065934065934016 1.4065934065934016) scale(2.81 2.81)">
	<path d="M 45 69.966 c -2.209 0 -4 -1.791 -4 -4 V 24.034 c 0 -2.209 1.791 -4 4 -4 s 4 1.791 4 4 v 41.932 C 49 68.175 47.209 69.966 45 69.966 z" style="stroke: none; stroke-width: 1; stroke-dasharray: none; stroke-linecap: butt; stroke-linejoin: miter; stroke-miterlimit: 10; fill: rgb(0,0,0); fill-rule: nonzero; opacity: 1;" transform=" matrix(1 0 0 1 0 0) " stroke-linecap="round"/>
	<path d="M 65.966 49 H 24.034 c -2.209 0 -4 -1.791 -4 -4 s 1.791 -4 4 -4 h 41.932 c 2.209 0 4 1.791 4 4 S 68.175 49 65.966 49 z" style="stroke: none; stroke-width: 1; stroke-dasharray: none; stroke-linecap: butt; stroke-linejoin: miter; stroke-miterlimit: 10; fill: rgb(0,0,0); fill-rule: nonzero; opacity: 1;" transform=" matrix(1 0 0 1 0 0) " stroke-linecap="round"/>
	<path d="M 72.605 90 H 17.395 C 7.803 90 0 82.197 0 72.605 V 17.395 C 0 7.803 7.803 0 17.395 0 h 55.211 C 82.197 0 90 7.803 90 17.395 v 55.211 C 90 82.197 82.197 90 72.605 90 z M 17.395 8 C 12.214 8 8 12.214 8 17.395 v 55.211 C 8 77.785 12.214 82 17.395 82 h 55.211 C 77.785 82 82 77.785 82 72.605 V 17.395 C 82 12.214 77.785 8 72.605 8 H 17.395 z" style="stroke: none; stroke-width: 1; stroke-dasharray: none; stroke-linecap: butt; stroke-linejoin: miter; stroke-miterlimit: 10; fill: rgb(0,0,0); fill-rule: nonzero; opacity: 1;" transform=" matrix(1 0 0 1 0 0) " stroke-linecap="round"/>
</g>
</svg>