<svg xmlns="http://www.w3.org/2000/svg" xmlns:xlink="http://www.w3.org/1999/xlink" version="1.1" width="256" height="256" viewBox="0 0 256 256" xml:space="preserve">
<g style="stroke: none; stroke-width: 0; stroke-dasharray: none; stroke-linecap: butt; stroke-linejoin: miter; stroke-miterlimit: 10; fill: none; fill-rule: nonzero; opacity: 1;" transform="translate(1.4065934065934016 1.4065934065934016) scale(2.81 2.81)">
	<path d="M 25.932 66.453 c 2.978 -1.908 4.961 -5.239 4.961 -9.031 v -4.49 c 0 -5.915 -4.813 -10.728 -10.728 -10.728 c -5.915 0 -10.728 4.813 -10.728 10.728 v 4.49 c 0 3.792 1.983 7.122 4.961 9.031 C 8.659 67.712 4.349 72.829 4.349 78.94 V 90 h 31.632 V 78.94 C 35.981 72.829 31.67 67.712 25.932 66.453 z M 11.437 57.422 v -4.49 c 0 -4.813 3.915 -8.728 8.728 -8.728 s 8.728 3.915 8.728 8.728 v 4.49 c 0 4.813 -3.916 8.728 -8.728 8.728 S 11.437 62.234 11.437 57.422 z M 33.981 88 H 6.349 v -9.06 c 0 -5.95 4.84 -10.791 10.79 -10.791 h 6.052 c 5.95 0 10.79 4.841 10.79 10.791 V 88 z" style="stroke: none; stroke-width: 1; stroke-dasharray: none; stroke-linecap: butt; stroke-linejoin: miter; stroke-miterlimit: 10; fill: rgb(0,0,0); fill-rule: nonzero; opacity: 1;" transform=" matrix(1 0 0 1 0 0) " stroke-linecap="round"/>
	<path d="M 75.603 66.453 c 2.978 -1.908 4.961 -5.239 4.961 -9.031 v -4.49 c 0 -5.915 -4.813 -10.728 -10.729 -10.728 c -5.915 0 -10.728 4.813 -10.728 10.728 v 4.49 c 0 3.792 1.983 7.122 4.961 9.031 c -5.739 1.259 -10.05 6.377 -10.05 12.488 V 90 h 31.633 V 78.94 C 85.651 72.829 81.341 67.712 75.603 66.453 z M 61.107 57.422 v -4.49 c 0 -4.813 3.915 -8.728 8.728 -8.728 s 8.729 3.915 8.729 8.728 v 4.49 c 0 4.813 -3.916 8.728 -8.729 8.728 S 61.107 62.234 61.107 57.422 z M 83.651 88 H 56.019 v -9.06 c 0 -5.95 4.841 -10.791 10.791 -10.791 h 6.052 c 5.949 0 10.79 4.841 10.79 10.791 V 88 z" style="stroke: none; stroke-width: 1; stroke-dasharray: none; stroke-linecap: butt; stroke-linejoin: miter; stroke-miterlimit: 10; fill: rgb(0,0,0); fill-rule: nonzero; opacity: 1;" transform=" matrix(1 0 0 1 0 0) " stroke-linecap="round"/>
	<path d="M 68.061 37.97 c 0.186 0.163 0.421 0.248 0.658 0.248 c 0.14 0 0.281 -0.029 0.413 -0.089 c 0.357 -0.162 0.587 -0.518 0.587 -0.911 v -7.429 h 3.849 c 4.914 0 8.911 -3.998 8.911 -8.911 v -4.338 c 0 -4.914 -3.997 -8.911 -8.911 -8.911 H 64.82 C 63.635 3.162 59.59 0 54.897 0 H 17.8 C 12.132 0 7.521 4.611 7.521 10.279 v 5.088 c 0 5.668 4.611 10.279 10.279 10.279 h 4.687 v 8.886 c 0 0.393 0.229 0.749 0.587 0.911 c 0.132 0.06 0.273 0.089 0.413 0.089 c 0.238 0 0.473 -0.085 0.659 -0.248 l 10.552 -9.233 c 1.618 2.258 4.257 3.736 7.241 3.736 H 58.71 L 68.061 37.97 z M 33.697 24.271 l -9.21 8.059 v -7.683 c 0 -0.552 -0.448 -1 -1 -1 H 17.8 c -4.565 0 -8.279 -3.714 -8.279 -8.279 v -5.088 C 9.521 5.714 13.235 2 17.8 2 h 37.097 c 3.597 0 6.723 2.305 7.839 5.628 H 41.939 c -4.914 0 -8.911 3.997 -8.911 8.911 v 4.338 c 0 0.296 0.016 0.592 0.045 0.885 c 0.015 0.153 0.044 0.302 0.067 0.452 c 0.021 0.139 0.036 0.279 0.064 0.417 c 0.03 0.15 0.073 0.296 0.11 0.443 c 0.035 0.138 0.065 0.277 0.106 0.413 c 0.034 0.111 0.078 0.218 0.116 0.327 C 33.589 23.967 33.636 24.122 33.697 24.271 z M 35.787 24.012 c -0.089 -0.175 -0.174 -0.352 -0.248 -0.534 c -0.035 -0.085 -0.063 -0.172 -0.095 -0.258 c -0.06 -0.167 -0.115 -0.336 -0.162 -0.507 c -0.023 -0.084 -0.045 -0.169 -0.065 -0.254 c -0.044 -0.186 -0.078 -0.375 -0.106 -0.564 c -0.011 -0.074 -0.025 -0.146 -0.034 -0.22 c -0.031 -0.264 -0.05 -0.53 -0.05 -0.797 v -4.338 c 0 -3.811 3.1 -6.911 6.911 -6.911 h 22.083 h 9.546 c 3.811 0 6.911 3.1 6.911 6.911 v 4.338 c 0 3.811 -3.101 6.911 -6.911 6.911 h -4.849 c -0.553 0 -1 0.448 -1 1 v 6.225 l -7.975 -6.978 c -0.182 -0.16 -0.416 -0.248 -0.658 -0.248 H 41.939 C 39.257 27.789 36.932 26.25 35.787 24.012 z" style="stroke: none; stroke-width: 1; stroke-dasharray: none; stroke-linecap: butt; stroke-linejoin: miter; stroke-miterlimit: 10; fill: rgb(0,0,0); fill-rule: nonzero; opacity: 1;" transform=" matrix(1 0 0 1 0 0) " stroke-linecap="round"/>
	<path d="M 65.721 20.03 h 6.034 c 0.553 0 1 -0.448 1 -1 s -0.447 -1 -1 -1 h -6.034 c -0.553 0 -1 0.448 -1 1 S 65.168 20.03 65.721 20.03 z" style="stroke: none; stroke-width: 1; stroke-dasharray: none; stroke-linecap: butt; stroke-linejoin: miter; stroke-miterlimit: 10; fill: rgb(0,0,0); fill-rule: nonzero; opacity: 1;" transform=" matrix(1 0 0 1 0 0) " stroke-linecap="round"/>
	<path d="M 58.075 18.03 h -13.68 c -0.552 0 -1 0.448 -1 1 s 0.448 1 1 1 h 13.68 c 0.553 0 1 -0.448 1 -1 S 58.628 18.03 58.075 18.03 z" style="stroke: none; stroke-width: 1; stroke-dasharray: none; stroke-linecap: butt; stroke-linejoin: miter; stroke-miterlimit: 10; fill: rgb(0,0,0); fill-rule: nonzero; opacity: 1;" transform=" matrix(1 0 0 1 0 0) " stroke-linecap="round"/>
</g>
</svg>