<svg xmlns="http://www.w3.org/2000/svg" xmlns:xlink="http://www.w3.org/1999/xlink" version="1.1" width="256" height="256" viewBox="0 0 256 256" xml:space="preserve">
<g style="stroke: none; stroke-width: 0; stroke-dasharray: none; stroke-linecap: butt; stroke-linejoin: miter; stroke-miterlimit: 10; fill: none; fill-rule: nonzero; opacity: 1;" transform="translate(1.4065934065934016 1.4065934065934016) scale(2.81 2.81)">
	<path d="M 45 57.894 c 9.286 0.466 15.157 3.168 22.276 9.937 c 4.617 4.355 8.507 5.712 13.988 5.712 c 12.438 0 10.49 -32.98 1.076 -49.12 c -3.438 -5.894 -10.227 -8.968 -16.924 -7.664 l -12.918 2.515 c -2.476 0.482 -4.987 0.723 -7.498 0.723 h 0 c -2.511 0 -5.022 -0.241 -7.498 -0.723 l -12.918 -2.515 c -6.697 -1.304 -13.487 1.77 -16.925 7.664 c -9.414 16.14 -11.362 49.12 1.076 49.12 c 5.482 0 9.372 -1.357 13.988 -5.712 C 29.843 61.062 35.714 58.36 45 57.894 L 45 57.894 z" style="stroke: none; stroke-width: 1; stroke-dasharray: none; stroke-linecap: butt; stroke-linejoin: miter; stroke-miterlimit: 10; fill: rgb(1,1,1); fill-rule: nonzero; opacity: 1;" transform=" matrix(1 0 0 1 0 0) " stroke-linecap="round"/>
	<path d="M 32.799 35.828 h -4.175 v -4.175 c 0 -2.239 -1.815 -4.054 -4.054 -4.054 h 0 c -2.239 0 -4.054 1.815 -4.054 4.054 v 4.175 H 16.34 c -2.239 0 -4.054 1.815 -4.054 4.054 v 0 c 0 2.239 1.815 4.054 4.054 4.054 h 4.175 v 4.175 c 0 2.239 1.815 4.054 4.054 4.054 h 0 c 2.239 0 4.054 -1.815 4.054 -4.054 v -4.175 h 4.175 c 2.239 0 4.054 -1.815 4.054 -4.054 v 0 C 36.854 37.643 35.039 35.828 32.799 35.828 z" style="stroke: none; stroke-width: 1; stroke-dasharray: none; stroke-linecap: butt; stroke-linejoin: miter; stroke-miterlimit: 10; fill: rgb(175,182,187); fill-rule: nonzero; opacity: 1;" transform=" matrix(1 0 0 1 0 0) " stroke-linecap="round"/>
	<circle cx="65.428" cy="31.118000000000002" r="3.518" style="stroke: none; stroke-width: 1; stroke-dasharray: none; stroke-linecap: butt; stroke-linejoin: miter; stroke-miterlimit: 10; fill: rgb(251,198,22); fill-rule: nonzero; opacity: 1;" transform="  matrix(1 0 0 1 0 0) "/>
	<circle cx="65.428" cy="48.648" r="3.518" style="stroke: none; stroke-width: 1; stroke-dasharray: none; stroke-linecap: butt; stroke-linejoin: miter; stroke-miterlimit: 10; fill: rgb(90,210,113); fill-rule: nonzero; opacity: 1;" transform="  matrix(1 0 0 1 0 0) "/>
	<circle cx="56.668" cy="39.878" r="3.518" style="stroke: none; stroke-width: 1; stroke-dasharray: none; stroke-linecap: butt; stroke-linejoin: miter; stroke-miterlimit: 10; fill: rgb(117,139,222); fill-rule: nonzero; opacity: 1;" transform="  matrix(1 0 0 1 0 0) "/>
	<circle cx="74.19800000000001" cy="39.878" r="3.518" style="stroke: none; stroke-width: 1; stroke-dasharray: none; stroke-linecap: butt; stroke-linejoin: miter; stroke-miterlimit: 10; fill: rgb(215,90,74); fill-rule: nonzero; opacity: 1;" transform="  matrix(1 0 0 1 0 0) "/>
</g>
</svg>